<svg width="245" height="83" viewBox="0 0 245 83" fill="none" xmlns="http://www.w3.org/2000/svg">
<rect width="245" height="82.2739" rx="41.1369" fill="white"/>
<path d="M103.759 53.5895C102.621 53.5895 101.508 53.4927 100.419 53.2991C99.3296 53.1055 98.3131 52.8271 97.3691 52.4641C96.4494 52.101 95.6144 51.6411 94.864 51.0845C94.5736 50.8666 94.3679 50.6246 94.2468 50.3583C94.15 50.0679 94.1258 49.7896 94.1742 49.5233C94.2468 49.2329 94.3679 48.9908 94.5373 48.7972C94.7309 48.6036 94.9609 48.4947 95.2271 48.4705C95.4933 48.4463 95.7838 48.531 96.0984 48.7246C97.1876 49.4991 98.3494 50.0679 99.5838 50.431C100.818 50.7698 102.21 50.9392 103.759 50.9392C105.937 50.9392 107.547 50.5399 108.588 49.7412C109.652 48.9182 110.185 47.8412 110.185 46.51C110.185 45.4208 109.798 44.5737 109.023 43.9686C108.273 43.3393 107.002 42.8431 105.211 42.48L101.435 41.7176C99.1602 41.2336 97.4538 40.4469 96.3163 39.3578C95.2029 38.2444 94.6462 36.768 94.6462 34.9285C94.6462 33.7909 94.8761 32.7623 95.336 31.8425C95.7959 30.8986 96.4373 30.0999 97.2602 29.4464C98.0831 28.7687 99.0634 28.2483 100.201 27.8852C101.339 27.5222 102.597 27.3406 103.977 27.3406C105.502 27.3406 106.917 27.5585 108.224 27.9941C109.556 28.4056 110.754 29.0349 111.819 29.882C112.085 30.0999 112.266 30.354 112.363 30.6444C112.46 30.9107 112.472 31.1769 112.4 31.4432C112.327 31.6852 112.194 31.8909 112 32.0604C111.831 32.2298 111.601 32.3266 111.31 32.3508C111.044 32.375 110.742 32.2782 110.403 32.0604C109.435 31.3342 108.43 30.8139 107.389 30.4992C106.349 30.1604 105.199 29.9909 103.94 29.9909C102.658 29.9909 101.544 30.1846 100.6 30.5718C99.6806 30.9591 98.9545 31.5279 98.422 32.2782C97.9137 33.0043 97.6596 33.8514 97.6596 34.8196C97.6596 35.9814 98.0105 36.9011 98.7124 37.5788C99.4385 38.2565 100.612 38.7527 102.234 39.0673L106.01 39.866C108.454 40.3743 110.258 41.1488 111.419 42.1896C112.605 43.2062 113.198 44.5979 113.198 46.3647C113.198 47.4297 112.981 48.4099 112.545 49.3055C112.109 50.201 111.48 50.9755 110.657 51.629C109.834 52.2583 108.842 52.7424 107.68 53.0813C106.518 53.4201 105.211 53.5895 103.759 53.5895ZM133.647 53.5169C133.163 53.5169 132.788 53.3838 132.521 53.1176C132.279 52.8271 132.158 52.4399 132.158 51.9558V28.9744C132.158 28.4661 132.279 28.0788 132.521 27.8126C132.788 27.5464 133.163 27.4132 133.647 27.4132C134.131 27.4132 134.494 27.5464 134.736 27.8126C135.002 28.0788 135.135 28.4661 135.135 28.9744V38.9947H150.493V28.9744C150.493 28.4661 150.614 28.0788 150.856 27.8126C151.122 27.5464 151.497 27.4132 151.981 27.4132C152.465 27.4132 152.828 27.5464 153.07 27.8126C153.337 28.0788 153.47 28.4661 153.47 28.9744V51.9558C153.47 52.4399 153.337 52.8271 153.07 53.1176C152.828 53.3838 152.465 53.5169 151.981 53.5169C151.497 53.5169 151.122 53.3838 150.856 53.1176C150.614 52.8271 150.493 52.4399 150.493 51.9558V41.5724H135.135V51.9558C135.135 52.4399 135.014 52.8271 134.772 53.1176C134.53 53.3838 134.155 53.5169 133.647 53.5169ZM175.607 53.5169C175.123 53.5169 174.747 53.3838 174.481 53.1176C174.239 52.8271 174.118 52.4399 174.118 51.9558V28.9744C174.118 28.4661 174.239 28.0788 174.481 27.8126C174.747 27.5464 175.123 27.4132 175.607 27.4132C176.091 27.4132 176.454 27.5464 176.696 27.8126C176.962 28.0788 177.095 28.4661 177.095 28.9744V51.9558C177.095 52.4399 176.974 52.8271 176.732 53.1176C176.49 53.3838 176.115 53.5169 175.607 53.5169ZM199.417 53.2628C198.885 53.2628 198.473 53.1297 198.183 52.8634C197.917 52.573 197.783 52.1615 197.783 51.629V29.3011C197.783 28.7687 197.917 28.3693 198.183 28.1031C198.473 27.8126 198.885 27.6674 199.417 27.6674H208.022C209.788 27.6674 211.277 27.9336 212.487 28.4661C213.722 28.9744 214.665 29.7247 215.319 30.7171C215.972 31.7094 216.299 32.9196 216.299 34.3476C216.299 35.945 215.827 37.2763 214.883 38.3412C213.964 39.4062 212.705 40.1081 211.108 40.4469V39.9387C212.923 40.1565 214.339 40.81 215.355 41.8992C216.396 42.9883 216.916 44.4284 216.916 46.2195C216.916 48.4947 216.178 50.2373 214.702 51.4475C213.225 52.6577 211.144 53.2628 208.457 53.2628H199.417ZM200.688 50.8666H208.167C210.103 50.8666 211.555 50.4794 212.523 49.7048C213.492 48.9303 213.976 47.7564 213.976 46.1832C213.976 44.5858 213.492 43.4119 212.523 42.6616C211.555 41.8871 210.103 41.4998 208.167 41.4998H200.688V50.8666ZM200.688 39.1036H207.586C209.474 39.1036 210.902 38.7164 211.87 37.9419C212.862 37.1673 213.358 36.054 213.358 34.6017C213.358 33.1011 212.862 31.9756 211.87 31.2253C210.902 30.4508 209.474 30.0636 207.586 30.0636H200.688V39.1036Z" fill="#1F0804"/>
<path d="M100.419 53.2991L100.594 52.3145L100.419 53.2991ZM97.3691 52.4641L97.0019 53.3943L97.0101 53.3974L97.3691 52.4641ZM94.864 51.0845L94.264 51.8845L94.2682 51.8876L94.864 51.0845ZM94.2468 50.3583L93.2982 50.6746L93.3148 50.7244L93.3365 50.7721L94.2468 50.3583ZM94.1742 49.5233L93.2041 49.2808L93.1962 49.3124L93.1904 49.3444L94.1742 49.5233ZM94.5373 48.7972L93.8302 48.0901L93.8066 48.1136L93.7847 48.1387L94.5373 48.7972ZM95.2271 48.4705L95.3176 49.4664L95.3176 49.4663L95.2271 48.4705ZM96.0984 48.7246L96.678 47.9096L96.6509 47.8904L96.6225 47.8729L96.0984 48.7246ZM99.5838 50.431L99.3016 51.3903L99.3103 51.3929L99.319 51.3953L99.5838 50.431ZM108.588 49.7411L109.196 50.5345L109.199 50.5324L108.588 49.7411ZM109.023 43.9686L108.381 44.7348L108.394 44.7459L108.408 44.7566L109.023 43.9686ZM105.211 42.48L105.41 41.5L105.409 41.4998L105.211 42.48ZM101.435 41.7176L101.227 42.6958L101.237 42.6978L101.435 41.7176ZM96.3163 39.3578L95.6092 40.0649L95.6168 40.0726L95.6247 40.0801L96.3163 39.3578ZM95.336 31.8425L96.2305 32.2898L96.235 32.2805L95.336 31.8425ZM97.2602 29.4464L97.8821 30.2295L97.8891 30.2239L97.8959 30.2183L97.2602 29.4464ZM100.201 27.8852L99.8969 26.9326H99.8969L100.201 27.8852ZM108.224 27.9941L107.908 28.9428L107.919 28.9463L107.929 28.9495L108.224 27.9941ZM111.819 29.882L112.452 29.108L112.441 29.0994L111.819 29.882ZM112.363 30.6444L111.415 30.9607L111.419 30.9735L111.424 30.9862L112.363 30.6444ZM112.4 31.4432L113.357 31.7305L113.361 31.7184L113.364 31.7063L112.4 31.4432ZM112 32.0604L111.342 31.3078L111.317 31.3297L111.293 31.3532L112 32.0604ZM111.31 32.3508L111.227 31.3542L111.22 31.3549L111.31 32.3508ZM110.403 32.0604L109.803 32.8604L109.832 32.882L109.862 32.9015L110.403 32.0604ZM107.389 30.4992L107.08 31.4501L107.09 31.4534L107.1 31.4564L107.389 30.4992ZM100.6 30.5718L100.221 29.6466L100.212 29.6502L100.6 30.5718ZM98.422 32.2782L97.6065 31.6994L97.6028 31.7047L98.422 32.2782ZM98.7124 37.5788L98.0178 38.2982L98.0239 38.3041L98.0301 38.3099L98.7124 37.5788ZM102.234 39.0673L102.441 38.089L102.433 38.0872L102.425 38.0856L102.234 39.0673ZM106.01 39.866L105.803 40.8444L105.806 40.8451L106.01 39.866ZM111.419 42.1896L110.752 42.9344L110.76 42.9417L110.769 42.9489L111.419 42.1896ZM112.545 49.3055L113.444 49.7429H113.444L112.545 49.3055ZM110.657 51.629L111.264 52.4234L111.272 52.4178L111.279 52.4121L110.657 51.629ZM107.68 53.0813L107.4 52.1213L107.68 53.0813ZM103.759 52.5895C102.678 52.5895 101.624 52.4976 100.594 52.3145L100.244 54.2837C101.392 54.4878 102.564 54.5895 103.759 54.5895V52.5895ZM100.594 52.3145C99.5617 52.131 98.6073 51.8689 97.7281 51.5307L97.0101 53.3974C98.0189 53.7854 99.0976 54.0799 100.244 54.2837L100.594 52.3145ZM97.7363 51.5339C96.8933 51.2011 96.1359 50.7829 95.4599 50.2814L94.2682 51.8876C95.0928 52.4994 96.0055 53.0009 97.002 53.3942L97.7363 51.5339ZM95.464 50.2845C95.2759 50.1433 95.194 50.0254 95.1572 49.9445L93.3365 50.7721C93.5418 51.2238 93.8713 51.5899 94.264 51.8845L95.464 50.2845ZM95.1955 50.0421C95.1448 49.8899 95.1435 49.7823 95.1581 49.7022L93.1904 49.3444C93.1081 49.7968 93.1553 50.2459 93.2982 50.6746L95.1955 50.0421ZM95.1444 49.7659C95.1848 49.6042 95.2408 49.5118 95.2899 49.4557L93.7847 48.1387C93.4949 48.4699 93.3089 48.8616 93.2041 49.2808L95.1444 49.7659ZM95.2444 49.5043C95.2664 49.4823 95.2793 49.4758 95.2831 49.474C95.2865 49.4724 95.2956 49.4684 95.3176 49.4664L95.1366 47.4746C94.6312 47.5205 94.1848 47.7354 93.8302 48.0901L95.2444 49.5043ZM95.3176 49.4663C95.3002 49.4679 95.3748 49.4534 95.5743 49.5763L96.6225 47.8729C96.1928 47.6085 95.6865 47.4246 95.1366 47.4746L95.3176 49.4663ZM95.5189 49.5396C96.695 50.3759 97.9567 50.9948 99.3016 51.3903L99.8659 49.4716C98.7421 49.141 97.6802 48.6224 96.678 47.9096L95.5189 49.5396ZM99.319 51.3953C100.656 51.7622 102.138 51.9392 103.759 51.9392V49.9392C102.281 49.9392 100.981 49.7775 99.8485 49.4666L99.319 51.3953ZM103.759 51.9392C106.024 51.9392 107.899 51.5303 109.196 50.5345L107.979 48.9478C107.195 49.5495 105.85 49.9392 103.759 49.9392V51.9392ZM109.199 50.5324C110.506 49.5226 111.185 48.1548 111.185 46.51H109.185C109.185 47.5275 108.799 48.3139 107.976 48.9499L109.199 50.5324ZM111.185 46.51C111.185 45.151 110.684 43.9974 109.639 43.1805L108.408 44.7566C108.911 45.1499 109.185 45.6906 109.185 46.51H111.185ZM109.666 43.2024C108.719 42.4084 107.245 41.8721 105.41 41.5L105.012 43.4601C106.759 43.8141 107.827 44.2702 108.381 44.7348L109.666 43.2024ZM105.409 41.4998L101.633 40.7374L101.237 42.6978L105.013 43.4603L105.409 41.4998ZM101.643 40.7395C99.4689 40.2768 97.9617 39.5487 97.0078 38.6355L95.6247 40.0801C96.946 41.3451 98.8515 42.1903 101.227 42.6957L101.643 40.7395ZM97.0234 38.6507C96.1291 37.7563 95.6462 36.5509 95.6462 34.9285H93.6462C93.6462 36.985 94.2767 38.7325 95.6092 40.0649L97.0234 38.6507ZM95.6462 34.9285C95.6462 33.9294 95.8471 33.0564 96.2304 32.2897L94.4416 31.3953C93.9052 32.4681 93.6462 33.6524 93.6462 34.9285H95.6462ZM96.235 32.2805C96.6294 31.471 97.1761 30.7901 97.8821 30.2295L96.6383 28.6632C95.6985 29.4096 94.9624 30.3262 94.437 31.4046L96.235 32.2805ZM97.8959 30.2183C98.6097 29.6305 99.474 29.1669 100.505 28.8379L99.8969 26.9326C98.6528 27.3296 97.5566 27.9068 96.6245 28.6744L97.8959 30.2183ZM100.505 28.8379C101.53 28.5106 102.685 28.3406 103.977 28.3406V26.3406C102.51 26.3406 101.147 26.5337 99.8969 26.9326L100.505 28.8379ZM103.977 28.3406C105.405 28.3406 106.713 28.5446 107.908 28.9428L108.541 27.0455C107.121 26.5724 105.598 26.3406 103.977 26.3406V28.3406ZM107.929 28.9495C109.144 29.3252 110.231 29.8968 111.196 30.6646L112.441 29.0994C111.277 28.173 109.967 27.486 108.52 27.0387L107.929 28.9495ZM111.185 30.656C111.324 30.7694 111.385 30.8711 111.415 30.9607L113.312 30.3282C113.148 29.8369 112.846 29.4304 112.452 29.1081L111.185 30.656ZM111.424 30.9862C111.452 31.0637 111.452 31.1187 111.435 31.18L113.364 31.7063C113.493 31.2351 113.469 30.7576 113.303 30.3027L111.424 30.9862ZM111.442 31.1558C111.424 31.2143 111.397 31.2598 111.342 31.3078L112.659 32.8129C112.991 32.522 113.23 32.1561 113.357 31.7305L111.442 31.1558ZM111.293 31.3532C111.297 31.349 111.302 31.3449 111.307 31.3418C111.312 31.3386 111.314 31.3378 111.313 31.3384C111.31 31.3397 111.285 31.3495 111.227 31.3543L111.393 33.3473C111.867 33.3079 112.337 33.1383 112.707 32.7675L111.293 31.3532ZM111.22 31.3549C111.243 31.3528 111.236 31.3591 111.189 31.3439C111.139 31.3281 111.058 31.2928 110.944 31.2192L109.862 32.9015C110.298 33.1816 110.825 33.399 111.401 33.3467L111.22 31.3549ZM111.003 31.2604C109.952 30.472 108.843 29.8941 107.679 29.542L107.1 31.4564C108.017 31.7336 108.918 32.1965 109.803 32.8604L111.003 31.2604ZM107.699 29.5483C106.545 29.1725 105.289 28.9909 103.94 28.9909V30.9909C105.109 30.9909 106.153 31.1482 107.08 31.4501L107.699 29.5483ZM103.94 28.9909C102.56 28.9909 101.312 29.1991 100.221 29.6467L100.98 31.497C101.777 31.1701 102.756 30.9909 103.94 30.9909V28.9909ZM100.212 29.6502C99.136 30.1034 98.2558 30.7844 97.6065 31.6994L99.2375 32.8569C99.6531 32.2713 100.225 31.8148 100.988 31.4935L100.212 29.6502ZM97.6028 31.7047C96.9659 32.6145 96.6596 33.6661 96.6596 34.8196H98.6596C98.6596 34.0367 98.8615 33.3941 99.2412 32.8517L97.6028 31.7047ZM96.6596 34.8196C96.6596 36.1968 97.0839 37.3965 98.0178 38.2982L99.407 36.8594C98.9371 36.4057 98.6596 35.7659 98.6596 34.8196H96.6596ZM98.0301 38.3099C98.9567 39.1747 100.347 39.7198 102.044 40.049L102.425 38.0856C100.878 37.7855 99.9203 37.3383 99.3947 36.8477L98.0301 38.3099ZM102.027 40.0457L105.803 40.8444L106.217 38.8877L102.441 38.089L102.027 40.0457ZM105.806 40.8451C108.172 41.337 109.778 42.0618 110.752 42.9344L112.087 41.4448C110.737 40.2359 108.737 39.4117 106.213 38.887L105.806 40.8451ZM110.769 42.9489C111.702 43.7492 112.198 44.847 112.198 46.3647H114.198C114.198 44.3487 113.508 42.6631 112.07 41.4303L110.769 42.9489ZM112.198 46.3647C112.198 47.2889 112.01 48.1181 111.646 48.868L113.444 49.7429C113.951 48.7018 114.198 47.5705 114.198 46.3647H112.198ZM111.646 48.868C111.279 49.6216 110.747 50.2802 110.035 50.8459L111.279 52.4121C112.212 51.6709 112.939 50.7804 113.444 49.7429L111.646 48.868ZM110.049 50.8347C109.34 51.3776 108.463 51.8112 107.4 52.1213L107.96 54.0413C109.221 53.6736 110.328 53.1391 111.264 52.4234L110.049 50.8347ZM107.4 52.1213C106.345 52.4289 105.135 52.5895 103.759 52.5895V54.5895C105.288 54.5895 106.691 54.4113 107.96 54.0413L107.4 52.1213ZM132.521 53.1176L131.753 53.7577L131.782 53.7926L131.814 53.8247L132.521 53.1176ZM132.521 27.8126L131.814 27.1055L131.797 27.1223L131.781 27.1399L132.521 27.8126ZM134.736 27.8126L133.996 28.4853L134.012 28.5029L134.029 28.5197L134.736 27.8126ZM135.135 38.9947H134.135V39.9947H135.135V38.9947ZM150.493 38.9947V39.9947H151.493V38.9947H150.493ZM150.856 27.8126L150.149 27.1055L150.132 27.1223L150.116 27.1399L150.856 27.8126ZM153.07 27.8126L152.33 28.4853L152.346 28.5029L152.363 28.5197L153.07 27.8126ZM153.07 53.1176L152.333 52.4418L152.33 52.4449L153.07 53.1176ZM150.856 53.1176L150.087 53.7578L150.116 53.7926L150.149 53.8247L150.856 53.1176ZM150.493 41.5724H151.493V40.5724H150.493V41.5724ZM135.135 41.5724V40.5724H134.135V41.5724H135.135ZM134.772 53.1176L135.512 53.7902L135.527 53.7743L135.541 53.7577L134.772 53.1176ZM133.647 52.5169C133.349 52.5169 133.258 52.4397 133.228 52.4105L131.814 53.8247C132.318 54.3279 132.977 54.5169 133.647 54.5169V52.5169ZM133.29 52.4774C133.235 52.4121 133.158 52.2729 133.158 51.9558H131.158C131.158 52.6069 131.323 53.2421 131.753 53.7577L133.29 52.4774ZM133.158 51.9558V28.9744H131.158V51.9558H133.158ZM133.158 28.9744C133.158 28.6125 133.245 28.5036 133.261 28.4853L131.781 27.1399C131.314 27.6541 131.158 28.3197 131.158 28.9744H133.158ZM133.228 28.5197C133.258 28.4905 133.349 28.4132 133.647 28.4132V26.4132C132.977 26.4132 132.318 26.6023 131.814 27.1055L133.228 28.5197ZM133.647 28.4132C133.8 28.4132 133.891 28.4346 133.938 28.452C133.98 28.4673 133.992 28.4803 133.996 28.4853L135.476 27.1399C134.985 26.6003 134.311 26.4132 133.647 26.4132V28.4132ZM134.029 28.5197C134.049 28.5403 134.135 28.6359 134.135 28.9744H136.135C136.135 28.2963 135.955 27.6174 135.443 27.1055L134.029 28.5197ZM134.135 28.9744V38.9947H136.135V28.9744H134.135ZM135.135 39.9947H150.493V37.9947H135.135V39.9947ZM151.493 38.9947V28.9744H149.493V38.9947H151.493ZM151.493 28.9744C151.493 28.6125 151.579 28.5036 151.596 28.4853L150.116 27.1399C149.648 27.6541 149.493 28.3197 149.493 28.9744H151.493ZM151.563 28.5197C151.592 28.4905 151.683 28.4132 151.981 28.4132V26.4132C151.311 26.4132 150.652 26.6023 150.149 27.1055L151.563 28.5197ZM151.981 28.4132C152.134 28.4132 152.225 28.4346 152.272 28.452C152.314 28.4673 152.326 28.4803 152.33 28.4853L153.81 27.1399C153.32 26.6003 152.645 26.4132 151.981 26.4132V28.4132ZM152.363 28.5197C152.384 28.5403 152.47 28.6359 152.47 28.9744H154.47C154.47 28.2964 154.289 27.6174 153.777 27.1055L152.363 28.5197ZM152.47 28.9744V51.9558H154.47V28.9744H152.47ZM152.47 51.9558C152.47 52.2496 152.394 52.3757 152.333 52.4418L153.807 53.7933C154.279 53.2785 154.47 52.6301 154.47 51.9558H152.47ZM152.33 52.4449C152.326 52.4498 152.314 52.4629 152.272 52.4782C152.225 52.4956 152.134 52.5169 151.981 52.5169V54.5169C152.645 54.5169 153.32 54.3299 153.81 53.7902L152.33 52.4449ZM151.981 52.5169C151.683 52.5169 151.592 52.4397 151.563 52.4105L150.149 53.8247C150.652 54.3279 151.311 54.5169 151.981 54.5169V52.5169ZM151.624 52.4774C151.57 52.4121 151.493 52.2729 151.493 51.9558H149.493C149.493 52.6069 149.658 53.2421 150.087 53.7578L151.624 52.4774ZM151.493 51.9558V41.5724H149.493V51.9558H151.493ZM150.493 40.5724H135.135V42.5724H150.493V40.5724ZM134.135 41.5724V51.9558H136.135V41.5724H134.135ZM134.135 51.9558C134.135 52.2729 134.058 52.4121 134.004 52.4774L135.541 53.7577C135.97 53.2421 136.135 52.6069 136.135 51.9558H134.135ZM134.032 52.4449C134.031 52.4462 134.029 52.4487 134.023 52.4527C134.016 52.457 134.001 52.4653 133.975 52.4747C133.92 52.4942 133.817 52.5169 133.647 52.5169V54.5169C134.317 54.5169 135.013 54.3394 135.512 53.7902L134.032 52.4449ZM174.481 53.1176L173.713 53.7577L173.742 53.7926L173.774 53.8247L174.481 53.1176ZM174.481 27.8126L173.774 27.1055L173.757 27.1223L173.741 27.1399L174.481 27.8126ZM176.696 27.8126L175.956 28.4853L175.972 28.5029L175.989 28.5197L176.696 27.8126ZM176.732 53.1176L177.472 53.7902L177.487 53.7743L177.5 53.7577L176.732 53.1176ZM175.607 52.5169C175.309 52.5169 175.218 52.4397 175.188 52.4105L173.774 53.8247C174.277 54.3279 174.937 54.5169 175.607 54.5169V52.5169ZM175.249 52.4774C175.195 52.4121 175.118 52.2729 175.118 51.9558H173.118C173.118 52.6069 173.283 53.2421 173.713 53.7577L175.249 52.4774ZM175.118 51.9558V28.9744H173.118V51.9558H175.118ZM175.118 28.9744C175.118 28.6125 175.204 28.5036 175.221 28.4853L173.741 27.1399C173.274 27.6541 173.118 28.3197 173.118 28.9744H175.118ZM175.188 28.5197C175.218 28.4905 175.309 28.4132 175.607 28.4132V26.4132C174.937 26.4132 174.277 26.6023 173.774 27.1055L175.188 28.5197ZM175.607 28.4132C175.76 28.4132 175.85 28.4346 175.898 28.452C175.939 28.4673 175.951 28.4803 175.956 28.4853L177.436 27.1399C176.945 26.6003 176.271 26.4132 175.607 26.4132V28.4132ZM175.989 28.5197C176.009 28.5403 176.095 28.6359 176.095 28.9744H178.095C178.095 28.2963 177.915 27.6174 177.403 27.1055L175.989 28.5197ZM176.095 28.9744V51.9558H178.095V28.9744H176.095ZM176.095 51.9558C176.095 52.2729 176.018 52.4121 175.964 52.4774L177.5 53.7577C177.93 53.2421 178.095 52.6069 178.095 51.9558H176.095ZM175.992 52.4449C175.991 52.4462 175.989 52.4487 175.982 52.4527C175.976 52.457 175.961 52.4653 175.935 52.4747C175.88 52.4942 175.777 52.5169 175.607 52.5169V54.5169C176.277 54.5169 176.973 54.3394 177.472 53.7902L175.992 52.4449ZM198.183 52.8634L197.446 53.5392L197.475 53.5712L197.507 53.6006L198.183 52.8634ZM198.183 28.1031L198.89 28.8102L198.89 28.8102L198.183 28.1031ZM212.487 28.4661L212.084 29.3814L212.095 29.3862L212.106 29.3908L212.487 28.4661ZM215.319 30.7171L216.154 30.1671V30.1671L215.319 30.7171ZM214.883 38.3412L214.135 37.6779L214.126 37.6876L214.883 38.3412ZM211.108 40.4469H210.108V41.6813L211.315 41.4252L211.108 40.4469ZM211.108 39.9387L211.227 38.9458L210.108 38.8115V39.9387H211.108ZM215.355 41.8992L214.624 42.5815L214.632 42.59L215.355 41.8992ZM214.702 51.4475L215.336 52.2209V52.2209L214.702 51.4475ZM200.688 50.8666H199.688V51.8666H200.688V50.8666ZM212.523 49.7048L213.148 50.4857L212.523 49.7048ZM212.523 42.6616L211.899 43.4424L211.905 43.4473L211.911 43.452L212.523 42.6616ZM200.688 41.4998V40.4998H199.688V41.4998H200.688ZM200.688 39.1036H199.688V40.1036H200.688V39.1036ZM211.87 37.9419L211.255 37.1535L211.245 37.161L211.87 37.9419ZM211.87 31.2253L211.245 32.0062L211.256 32.0147L211.267 32.023L211.87 31.2253ZM200.688 30.0636V29.0636H199.688V30.0636H200.688ZM199.417 52.2628C199.046 52.2628 198.908 52.1715 198.858 52.1263L197.507 53.6006C198.039 54.0878 198.724 54.2628 199.417 54.2628V52.2628ZM198.92 52.1877C198.875 52.1383 198.783 52.0006 198.783 51.629H196.783C196.783 52.3225 196.958 53.0076 197.446 53.5392L198.92 52.1877ZM198.783 51.629V29.3011H196.783V51.629H198.783ZM198.783 29.3011C198.783 28.9228 198.877 28.8227 198.89 28.8102L197.476 27.3959C196.956 27.9159 196.783 28.6145 196.783 29.3011H198.783ZM198.89 28.8102C198.942 28.7582 199.068 28.6674 199.417 28.6674V26.6674C198.701 26.6674 198.005 26.867 197.476 27.3959L198.89 28.8102ZM199.417 28.6674H208.022V26.6674H199.417V28.6674ZM208.022 28.6674C209.694 28.6674 211.036 28.9202 212.084 29.3814L212.89 27.5508C211.518 26.9471 209.883 26.6674 208.022 26.6674V28.6674ZM212.106 29.3908C213.179 29.8324 213.954 30.4626 214.484 31.267L216.154 30.1671C215.377 28.9868 214.264 28.1164 212.868 27.5414L212.106 29.3908ZM214.484 31.267C215.01 32.0657 215.299 33.0751 215.299 34.3476H217.299C217.299 32.7641 216.935 31.3531 216.154 30.1671L214.484 31.267ZM215.299 34.3476C215.299 35.7327 214.897 36.8186 214.135 37.6779L215.632 39.0045C216.758 37.734 217.299 36.1574 217.299 34.3476H215.299ZM214.126 37.6876C213.372 38.5616 212.32 39.1676 210.9 39.4687L211.315 41.4252C213.09 41.0486 214.556 40.2507 215.64 38.9948L214.126 37.6876ZM212.108 40.4469V39.9387H210.108V40.4469H212.108ZM210.988 40.9315C212.625 41.1279 213.803 41.7014 214.624 42.5815L216.086 41.2168C214.875 39.9186 213.221 39.1851 211.227 38.9458L210.988 40.9315ZM214.632 42.59C215.462 43.4587 215.916 44.634 215.916 46.2195H217.916C217.916 44.2229 217.33 42.5179 216.078 41.2083L214.632 42.59ZM215.916 46.2195C215.916 48.2588 215.267 49.6909 214.068 50.6741L215.336 52.2209C217.089 50.7838 217.916 48.7306 217.916 46.2195H215.916ZM214.068 50.6741C212.831 51.6882 211.005 52.2628 208.457 52.2628V54.2628C211.282 54.2628 213.62 53.6272 215.336 52.2209L214.068 50.6741ZM208.457 52.2628H199.417V54.2628H208.457V52.2628ZM200.688 51.8666H208.167V49.8666H200.688V51.8666ZM208.167 51.8666C210.21 51.8666 211.927 51.4624 213.148 50.4857L211.899 48.924C211.183 49.4964 209.996 49.8666 208.167 49.8666V51.8666ZM213.148 50.4857C214.415 49.472 214.976 47.9711 214.976 46.1832H212.976C212.976 47.5418 212.568 48.3887 211.899 48.924L213.148 50.4857ZM214.976 46.1832C214.976 44.3788 214.419 42.8657 213.136 41.8712L211.911 43.452C212.564 43.958 212.976 44.7928 212.976 46.1832H214.976ZM213.148 41.8807C211.927 40.904 210.21 40.4998 208.167 40.4998V42.4998C209.996 42.4998 211.183 42.8701 211.899 43.4424L213.148 41.8807ZM208.167 40.4998H200.688V42.4998H208.167V40.4998ZM199.688 41.4998V50.8666H201.688V41.4998H199.688ZM200.688 40.1036H207.586V38.1036H200.688V40.1036ZM207.586 40.1036C209.588 40.1036 211.277 39.6965 212.495 38.7227L211.245 37.161C210.526 37.7363 209.36 38.1036 207.586 38.1036V40.1036ZM212.485 38.7302C213.76 37.7355 214.358 36.3085 214.358 34.6017H212.358C212.358 35.7994 211.965 36.5991 211.255 37.1535L212.485 38.7302ZM214.358 34.6017C214.358 32.8601 213.768 31.4068 212.473 30.4277L211.267 32.023C211.957 32.5445 212.358 33.3421 212.358 34.6017H214.358ZM212.495 30.4445C211.277 29.4707 209.588 29.0636 207.586 29.0636V31.0636C209.36 31.0636 210.526 31.4309 211.245 32.0062L212.495 30.4445ZM207.586 29.0636H200.688V31.0636H207.586V29.0636ZM199.688 30.0636V39.1036H201.688V30.0636H199.688Z" fill="black"/>
<path d="M66.1583 63.9436C61.1019 63.9436 56.8235 57.6874 52.1561 57.6874V62.1562C56.947 62.1562 61.4661 66.0544 66.1583 65.2842C68.3364 64.9268 70.8257 63.4968 71.9925 60.3687C70.696 62.4541 69.6173 63.9436 66.1583 63.9436Z" fill="black"/>
<path d="M37.6153 63.9436C42.8661 63.9436 47.3091 57.6874 52.1561 57.6874V62.1562C47.1809 62.1562 42.4879 66.0544 37.6153 65.2842C35.3534 64.9268 32.7684 63.4968 31.5567 60.3687C32.903 62.4541 34.0233 63.9436 37.6153 63.9436Z" fill="black"/>
<path d="M52.2828 56.9824C48.8682 55.8887 44.0041 53.4631 44.9328 49.4048C45.8616 45.3464 48.0397 44.8582 52.2828 44.8582L52.9545 51.4886L52.2828 56.9824Z" fill="#1F0804"/>
<path d="M52.2849 56.9824C55.6995 55.8887 60.5635 53.4631 59.6348 49.4048C58.7061 45.3464 56.528 44.8582 52.2849 44.8582L51.6132 51.4886L52.2849 56.9824Z" fill="#1F0804"/>
<path d="M36.423 16.8234C38.6319 14.8603 41.7661 15.8536 43.4791 18.2244C44.814 20.072 44.9364 22.207 43.4791 23.9686C41.6308 26.2027 37.8822 25.0585 35.835 22.9879C33.9058 21.0367 34.3657 18.6518 36.423 16.8234Z" fill="#FFEBBF"/>
<path d="M67.8892 16.8234C65.6802 14.8603 62.5461 15.8536 60.8331 18.2244C59.4981 20.072 59.3757 22.207 60.8331 23.9686C62.6814 26.2027 66.4299 25.0585 68.4772 22.9879C70.4063 21.0367 69.9465 18.6518 67.8892 16.8234Z" fill="#FFEBBF"/>
<path d="M29.2286 28.4408C33.679 25.7501 37.8219 26.7681 41.2731 30.0175C43.9626 32.5497 45.7988 35.0254 43.4444 38.2339C41.2731 41.1929 33.3532 39.3028 29.2286 36.4649C25.342 33.7906 25.0838 30.9468 29.2286 28.4408Z" fill="#1F0804"/>
<path d="M75.0835 28.4408C70.6332 25.7501 66.4902 26.7681 63.039 30.0175C60.3495 32.5497 58.5134 35.0254 60.8677 38.2339C63.039 41.1929 70.9589 39.3028 75.0835 36.4649C78.9701 33.7906 79.2283 30.9468 75.0835 28.4408Z" fill="#1F0804"/>
</svg>
