<svg width="490" height="186" viewBox="0 0 490 186" fill="none" xmlns="http://www.w3.org/2000/svg">
<rect x="49.1497" y="45" width="440" height="141" rx="10" fill="#BF6F60" fill-opacity="0.4"/>
<rect x="9" width="185" height="63" rx="29" fill="white"/>
<path d="M48.5 80L38.5407 62.75H58.4593L48.5 80Z" fill="white"/>
<path d="M34.11 24.152C34.448 24.152 34.5 24.178 34.968 24.23C36.658 24.438 38.868 24.568 40.688 24.568C42.17 24.568 43.054 24.49 44.614 24.23C44.354 24.386 44.302 24.386 44.12 24.49C43.808 24.646 43.756 24.672 43.47 24.828C42.3 25.478 41.676 25.868 40.012 26.986L41.338 28.052C43.886 26.206 46.278 24.776 47.89 24.1L47.76 22.384C46.33 22.748 44.224 22.93 41.182 22.93C38.218 22.93 36.164 22.748 34.266 22.306L34.11 24.152ZM35.67 30.808C33.668 32.498 32.68 34.136 32.68 35.826C32.68 37.62 33.694 38.946 35.644 39.752C36.918 40.246 39.128 40.558 41.624 40.558C43.912 40.558 46.382 40.35 48.644 39.96C49.086 39.882 49.19 39.856 49.528 39.83L49.294 37.698C47.838 38.296 44.744 38.686 41.494 38.686C39.44 38.686 37.724 38.504 36.736 38.166C35.28 37.672 34.526 36.814 34.526 35.618C34.526 34.396 35.306 33.2 36.996 31.796L35.67 30.808ZM65.414 20.174C65.258 20.954 64.686 22.592 61.852 30.106C58.108 40.09 58.108 40.09 57.77 40.818L59.772 41.442C60.11 39.882 61.306 36.918 62.164 35.462C63.62 32.992 65.31 31.614 66.818 31.614C67.598 31.614 68.066 31.926 68.3 32.576C68.456 32.992 68.508 33.486 68.508 34.552V36.034C68.508 37.49 68.586 38.322 68.742 38.842C69.236 40.324 70.614 41.182 72.538 41.182C74.67 41.182 76.516 40.168 77.712 38.348C78.518 37.126 79.038 35.826 79.558 33.772C78.804 33.33 78.518 33.096 77.842 32.446C77.686 33.85 77.4 34.942 76.854 36.138C75.892 38.322 74.54 39.388 72.694 39.388C71.836 39.388 71.056 39.076 70.718 38.582C70.406 38.114 70.302 37.464 70.302 36.112V34.344C70.302 32.862 70.172 32.03 69.86 31.406C69.392 30.47 68.378 29.872 67.26 29.872C65.414 29.872 64.088 30.808 62.372 33.278L62.242 33.226C62.346 32.992 62.372 32.94 62.476 32.758C62.606 32.498 62.71 32.29 62.762 32.186C63.828 29.95 63.828 29.95 64.634 27.896C67.182 21.37 67.182 21.37 67.52 20.746L65.414 20.174ZM88.164 20.72C88.112 21.318 88.06 21.578 87.8 22.8C86.942 26.648 86.63 29.404 86.63 33.096C86.63 35.826 86.812 37.698 87.306 40.454C87.384 40.948 87.41 41.078 87.462 41.494L89.334 41.338C89.334 41.156 89.334 41.026 89.334 40.948C89.334 39.492 90.27 36.372 91.44 33.798L90.192 33.2C89.36 35.098 88.866 36.528 88.502 38.27C88.398 36.892 88.346 35.358 88.346 33.33C88.346 30.21 88.58 27.922 89.126 25.192C89.516 23.424 89.828 22.15 90.218 21.032L88.164 20.72ZM93.52 25.634C95.21 25.816 96.224 25.894 97.68 25.894C99.682 25.894 101.762 25.764 103.27 25.556C104.414 25.4 105.012 25.322 105.064 25.322L104.934 23.476C103.192 23.944 100.852 24.178 97.966 24.178C95.938 24.178 94.664 24.074 93.546 23.788L93.52 25.634ZM95.418 30.704C93.806 32.55 93.156 33.954 93.156 35.54C93.156 36.502 93.416 37.282 93.936 37.932C95.054 39.284 96.926 39.908 99.89 39.908C101.658 39.908 103.4 39.752 105.22 39.388C105.74 39.31 105.792 39.284 106.13 39.258L105.87 37.256C104.466 37.828 102.256 38.166 99.89 38.166C96.536 38.166 94.898 37.23 94.898 35.306C94.898 34.162 95.548 32.914 96.848 31.484L95.418 30.704ZM113.774 25.972C113.852 25.972 113.93 25.972 113.982 25.972C114.138 25.972 114.372 25.972 114.71 25.998C116.218 26.102 117.362 26.154 119.026 26.18C118.142 29.248 116.66 32.888 115.542 34.656L117.414 35.41C117.934 34.734 118.532 34.266 119.598 33.746C121.366 32.862 123.628 32.342 125.63 32.342C128.75 32.342 130.622 33.538 130.622 35.514C130.622 38.01 127.918 39.648 123.81 39.648C121.444 39.648 119.338 39.232 117.31 38.348C117.388 39.18 117.44 39.648 117.44 39.778C117.44 39.804 117.44 39.83 117.44 39.934C117.44 40.012 117.44 40.168 117.414 40.35C119.494 41.052 121.522 41.364 123.836 41.364C129.088 41.364 132.546 39.05 132.546 35.514C132.546 32.602 129.92 30.73 125.812 30.73C122.978 30.73 120.066 31.562 118.246 32.914L118.22 32.862C118.948 31.666 120.092 28.702 120.82 26.18C124.746 26.05 126.826 25.894 130.466 25.426C131.012 25.348 131.168 25.348 131.61 25.296L131.48 23.424C129.79 23.996 126.332 24.36 121.236 24.542C121.496 23.606 121.574 23.294 121.938 21.786C122.224 20.512 122.224 20.512 122.354 20.122L120.274 19.914C120.248 21.084 119.988 22.54 119.442 24.568C116.712 24.568 115.048 24.438 113.826 24.126L113.774 25.972ZM147.782 27.584C147.834 27.584 147.86 27.584 147.886 27.584C147.938 27.584 148.016 27.584 148.146 27.61C148.198 27.61 148.354 27.61 148.588 27.636C148.692 27.636 148.978 27.636 149.42 27.688C150.33 27.74 151.292 27.766 152.358 27.766C153.346 27.766 154.152 27.74 155.322 27.688C155.4 31.484 155.504 33.928 155.582 34.474C154.984 34.162 153.762 33.954 152.696 33.954C149.81 33.954 147.756 35.488 147.756 37.646C147.756 39.908 149.654 41.338 152.67 41.338C154.802 41.338 156.388 40.532 157.012 39.154C157.22 38.686 157.324 38.062 157.324 37.386C157.324 37.152 157.324 37.1 157.272 36.71C157.402 36.788 157.402 36.788 157.506 36.866C157.662 36.97 157.662 36.97 157.766 37.022C159.612 38.088 160.652 38.816 161.458 39.726L162.264 37.906C161.978 37.724 161.926 37.672 161.614 37.464C159.898 36.19 159.17 35.774 157.272 34.916C157.064 31.458 157.012 30.132 156.986 27.558C158.338 27.402 159.066 27.298 159.742 27.142C161.51 26.778 161.51 26.778 161.562 26.778L161.484 25.01C160.496 25.426 158.988 25.738 156.986 25.972C156.96 25.4 156.96 24.984 156.96 24.698C156.96 22.54 157.012 21.318 157.142 20.616H155.192C155.244 20.876 155.27 21.24 155.27 21.682C155.27 23.658 155.27 23.658 155.296 26.102C154.23 26.154 153.528 26.18 152.514 26.18C150.226 26.18 149.108 26.076 147.834 25.764L147.782 27.584ZM155.608 36.06C155.608 36.06 155.634 36.658 155.634 36.84C155.634 37.854 155.478 38.478 155.14 38.868C154.646 39.44 153.632 39.778 152.488 39.778C150.668 39.778 149.472 38.946 149.472 37.672C149.472 36.372 150.798 35.514 152.826 35.514C153.866 35.514 154.542 35.644 155.608 36.06ZM143.18 20.59C143.154 20.928 143.128 21.084 142.894 22.228C141.88 26.726 141.542 29.456 141.542 32.914C141.542 35.54 141.802 38.218 142.27 40.636C142.374 41.234 142.4 41.364 142.426 41.598L144.272 41.416C144.22 41.052 144.22 41.026 144.22 40.896C144.22 39.362 145.234 36.06 146.456 33.512L145.182 32.914C145.13 33.096 145.078 33.2 144.974 33.434C144.09 35.566 143.908 36.06 143.44 38.01L143.336 37.984C143.336 37.724 143.336 37.724 143.336 37.49C143.31 37.022 143.31 36.97 143.31 36.762C143.258 35.566 143.206 34.032 143.206 33.122C143.206 28.858 144.09 23.528 145.208 20.928L143.18 20.59ZM170.818 35.956C170.766 35.306 170.74 34.838 170.74 34.37C170.74 34.266 170.74 34.266 170.766 33.174L170.974 23.944C171 22.852 171.052 22.072 171.13 21.084H168.556C168.66 22.072 168.686 22.852 168.712 23.944L168.946 33.174V34.11C168.946 34.994 168.946 35.15 168.894 35.956H170.818ZM171.13 40.844V38.4H168.608V40.844H171.13Z" fill="black"/>
</svg>
